<?xml version="1.0" encoding="UTF-8"?>
<svg xmlns="http://www.w3.org/2000/svg" viewBox="0 0 1400 400">
  <path d="M0,199.93c36.23-.01,70.97-14.41,96.58-40.03,25.62-25.62,40.01-60.36,40.03-96.58-36.23,0-70.98,14.39-96.6,40.01C14.39,128.95,0,163.7,0,199.93Zm136.71,136.75c-.01-36.22-14.41-70.96-40.03-96.56C71.06,214.51,36.32,200.12,.1,200.12c.01,36.22,14.41,70.96,40.03,96.56,25.62,25.61,60.36,39.99,96.58,39.99Zm136.46-136.75c-17.94,.01-35.7,3.56-52.27,10.44-16.57,6.88-31.62,16.96-44.29,29.66-12.67,12.7-22.72,27.77-29.56,44.36-6.85,16.58-10.36,34.35-10.33,52.3,17.94-.01,35.7-3.56,52.27-10.44,16.57-6.88,31.62-16.96,44.29-29.66,12.67-12.7,22.72-27.77,29.56-44.36,6.85-16.58,10.36-34.35,10.33-52.3ZM136.7,63.32c0,36.22,14.39,70.96,39.99,96.58,25.61,25.62,60.34,40.02,96.56,40.03,0-17.94-3.52-35.7-10.38-52.27-6.86-16.57-16.92-31.63-29.6-44.32-12.68-12.69-27.74-22.75-44.31-29.61-16.57-6.87-34.33-10.4-52.27-10.4ZM432.28,215.44h-53.64l-10.57,24.83h-20.54l48.27-107.28h19.62l48.43,107.28h-20.84l-10.73-24.83Zm-6.59-15.63l-20.23-46.89-20.08,46.89h40.3Zm136.85-.46c0,25.44-17.62,41.99-41.53,41.99-10.42,0-19.62-3.52-26.21-11.03v39.69h-19.16v-111.57h18.24v10.73c6.44-7.82,15.94-11.65,27.13-11.65,23.91,0,41.53,16.55,41.53,41.84Zm-19.46,0c0-15.63-10.42-25.59-24.21-25.59s-24.37,9.96-24.37,25.59,10.57,25.59,24.37,25.59,24.21-9.96,24.21-25.59Zm86.89,36.47c-4.6,3.68-11.49,5.52-18.39,5.52-17.93,0-28.2-9.5-28.2-27.59v-39.39h-13.49v-15.32h13.49v-18.7h19.16v18.7h21.92v15.32h-21.92v38.93c0,7.97,3.98,12.26,11.34,12.26,3.98,0,7.82-1.07,10.73-3.37l5.36,13.64Zm6.28-36.47c0-24.52,18.39-41.84,43.52-41.84s43.68,17.32,43.68,41.84-18.24,41.99-43.68,41.99-43.52-17.47-43.52-41.99Zm67.89,0c0-15.63-10.42-25.59-24.37-25.59s-24.21,9.96-24.21,25.59,10.42,25.59,24.21,25.59,24.37-9.96,24.37-25.59Zm28.34,32.79l7.36-14.56c7.2,4.75,18.24,8.12,28.5,8.12,12.11,0,17.16-3.37,17.16-9.04,0-15.63-50.57-.92-50.57-33.56,0-15.48,13.95-25.59,36.01-25.59,10.88,0,23.29,2.61,30.65,7.05l-7.36,14.56c-7.82-4.6-15.63-6.13-23.45-6.13-11.65,0-17.16,3.83-17.16,9.19,0,16.55,50.57,1.84,50.57,33.87,0,15.32-14.1,25.29-37.09,25.29-13.64,0-27.28-3.99-34.64-9.2Zm227.72-99.15v107.28h-16.4l-59.16-72.64v72.64h-19.77v-107.28h16.4l59.16,72.64v-72.64h19.77Zm95.47,59.31v47.97h-18.08v-9.96c-4.6,7.05-13.49,11.03-25.75,11.03-18.7,0-30.5-10.27-30.5-24.52s9.2-24.37,34.02-24.37h21.15v-1.23c0-11.19-6.74-17.78-20.38-17.78-9.2,0-18.7,3.06-24.83,8.12l-7.51-13.95c8.74-6.74,21.46-10.11,34.63-10.11,23.6,0,37.24,11.19,37.24,34.79Zm-19.16,22.37v-9.5h-19.77c-13.03,0-16.55,4.9-16.55,10.88,0,6.9,5.82,11.34,15.63,11.34s17.47-4.29,20.69-12.72Zm180.53-21.3v46.89h-19.16v-44.44c0-14.56-6.74-21.61-18.39-21.61-12.57,0-21.3,8.28-21.3,24.52v41.53h-19.16v-44.44c0-14.56-6.74-21.61-18.39-21.61-12.72,0-21.3,8.28-21.3,24.52v41.53h-19.16v-81.84h18.24v10.42c6.13-7.36,15.63-11.34,26.82-11.34,11.95,0,21.92,4.44,27.59,13.64,6.59-8.43,17.62-13.64,30.65-13.64,19.77,0,33.56,11.19,33.56,35.86Zm101.9,12.11h-64.21c2.3,11.95,12.26,19.62,26.51,19.62,9.2,0,16.4-2.91,22.22-8.89l10.27,11.8c-7.36,8.74-18.85,13.33-32.95,13.33-27.43,0-45.21-17.62-45.21-41.99s17.93-41.84,42.3-41.84,41.38,16.7,41.38,42.3c0,1.53-.15,3.83-.31,5.67Zm-64.37-12.72h46.44c-1.53-11.8-10.57-19.92-23.14-19.92s-21.46,7.97-23.29,19.92Zm73.71,39.39l7.36-14.56c7.2,4.75,18.24,8.12,28.5,8.12,12.11,0,17.16-3.37,17.16-9.04,0-15.63-50.57-.92-50.57-33.56,0-15.48,13.95-25.59,36.01-25.59,10.88,0,23.29,2.61,30.65,7.05l-7.36,14.56c-7.82-4.6-15.63-6.13-23.45-6.13-11.65,0-17.16,3.83-17.16,9.19,0,16.55,50.57,1.84,50.57,33.87,0,15.32-14.1,25.29-37.09,25.29-13.64,0-27.28-3.99-34.64-9.2Z" fill="#ffffff"/>
</svg>