<?xml version="1.0" encoding="UTF-8"?>
<svg xmlns="http://www.w3.org/2000/svg" viewBox="0 0 1100 400">
  <path d="M193.57,170.66l29.34,29.34-29.34,29.34-45.83,45.82-75.17-75.17,75.17-75.17,45.83,45.82Zm-115.11-50.66l-70.11-1.63,53.24,68.92,.74,.96,67.06-67.06-50.92-1.19h0Zm50.92,158.82L62.33,211.76l-.74,.96L8.35,281.64l70.11-1.63,50.92-1.19h0ZM0,266.99l51.74-66.99L0,133.01v133.98h0ZM166.11,121.19l67.06,67.06,16.63-21.54,37.34-48.34-70.23,1.64-50.8,1.18h0Zm67.06,90.57l-67.06,67.06,50.8,1.18,70.23,1.64-37.34-48.34-16.63-21.54h0Zm62.33,55.23V133.01l-51.74,66.99,51.74,66.99h0ZM139.97,33.89L20.14,103.07l119.83,2.79V33.89Zm135.39,69.18L155.53,33.89V105.86l119.83-2.79ZM20.14,296.93l119.83,69.18v-71.97s-119.83,2.79-119.83,2.79Zm135.39-2.79v71.97l119.83-69.18-119.83-2.79ZM457.02,145.71h-51.38v-30.28h139.93v30.28h-51.38v130.3h-37.16V145.71Zm84.19,68.59c0-37.16,28.67-63.54,67.9-63.54s67.67,26.38,67.67,63.54-28.44,63.54-67.67,63.54-67.9-26.38-67.9-63.54Zm99.33,0c0-21.33-13.53-34.18-31.43-34.18s-31.66,12.85-31.66,34.18,13.76,34.18,31.66,34.18,31.43-12.85,31.43-34.18Zm194.52,0c0,38.77-26.84,63.54-61.48,63.54-15.37,0-27.99-4.82-37.16-14.91v57.58h-35.79V152.59h34.18v14.22c8.95-10.78,22.25-16.06,38.77-16.06,34.64,0,61.48,24.77,61.48,63.54Zm-36.24,0c0-21.33-13.53-34.18-31.43-34.18s-31.43,12.85-31.43,34.18,13.53,34.18,31.43,34.18,31.43-12.85,31.43-34.18Zm167.23-8.72v70.42h-33.49v-15.37c-6.65,11.24-19.5,17.2-37.62,17.2-28.9,0-46.11-16.06-46.11-37.39s15.37-36.93,52.99-36.93h28.44c0-15.37-9.18-24.31-28.44-24.31-13.08,0-26.61,4.36-35.56,11.47l-12.85-25c13.53-9.64,33.49-14.91,53.22-14.91,37.62,0,59.41,17.43,59.41,54.83Zm-35.79,31.43v-12.62h-24.54c-16.75,0-22.02,6.19-22.02,14.45,0,8.95,7.57,14.91,20.19,14.91,11.93,0,22.25-5.51,26.38-16.75Zm169.75,11.47v27.53h-110.11v-21.56l62.85-74.32h-61.25v-27.53h106.44v21.56l-62.86,74.32h64.92Z" fill="#ffffff"/>
</svg>