<?xml version="1.0" encoding="UTF-8"?>
<svg xmlns="http://www.w3.org/2000/svg" viewBox="0 0 900 400">
  <path d="M134.97,75.81C60.42,75.81,0,136.86,0,212.15s60.42,136.35,134.97,136.35,134.97-61.05,134.97-136.35S209.52,75.81,134.97,75.81Zm76.54,129.61c-.64,3.72-4.16,6.74-7.85,6.74h-68.7l-8.03,46.07c-.64,3.72-4.16,6.73-7.85,6.73H57.06c-3.68,0-6.15-3.02-5.49-6.73l6.87-39.33c.64-3.72,4.16-6.73,7.85-6.73h68.7l8.03-46.07c.64-3.72,4.16-6.73,7.85-6.73h62.03c3.68,0,6.14,3.02,5.49,6.73l-6.87,39.33Zm226.76-85.99c-23.98,0-42.94,9.68-56.86,29.07l-2.06-25.95h-36.64v182.36h39.05v-85.47c0-8.53,.91-16.55,2.74-24.05,1.82-7.49,4.85-14.01,9.08-19.54,4.22-5.53,9.71-9.98,16.44-13.32,6.73-3.34,15.13-5.14,25.18-5.37,2.5,0,5.07-.05,7.7-.18,2.62-.11,5.32-.18,8.05-.18v-36.68c-1.82-.23-3.83-.41-5.98-.51-2.18-.11-4.4-.18-6.68-.18h-.01Zm79.47,3.11h-39.05v182.36h39.05V122.54Zm169.56,91.17c-5.49-3.8-12.17-6.86-20.04-9.17-7.87-2.3-16.74-4.5-26.54-6.57-3.66-.69-8.05-1.56-13.19-2.6-5.14-1.04-9.99-2.42-14.55-4.15-4.56-1.73-8.5-3.98-11.81-6.75-3.32-2.77-4.97-6.57-4.97-11.41,0-4.38,1.07-7.97,3.25-10.73,2.17-2.77,4.91-4.9,8.22-6.4,3.31-1.5,6.85-2.48,10.62-2.94,3.78-.46,7.36-.69,10.79-.69,8.68,.47,16.15,2.25,22.44,5.37,6.28,3.11,9.99,8.36,11.13,15.74h36.64c-1.14-17.53-8.05-30.9-20.73-40.14-12.68-9.22-28.95-13.84-48.81-13.84-8.22,0-16.56,.87-25.01,2.6-8.45,1.73-16.09,4.84-22.95,9.35-6.84,4.5-12.45,10.33-16.79,17.47-4.34,7.16-6.51,16.26-6.51,27.33,0,10.37,2.4,18.92,7.19,25.6,4.79,6.7,10.9,11.71,18.33,15.05,7.42,3.34,15.41,6.06,23.98,8.13,8.57,2.07,16.62,3.8,24.15,5.19,4.79,1.15,9.36,2.25,13.7,3.29,4.34,1.04,8.05,2.48,11.13,4.33,3.08,1.85,5.53,4.1,7.36,6.75,1.82,2.65,2.75,5.94,2.75,9.86,0,4.15-1.2,7.56-3.6,10.21-2.4,2.65-5.32,4.79-8.74,6.4-3.43,1.62-7.14,2.65-11.13,3.11-3.99,.46-7.36,.69-10.1,.69-3.66,0-7.66-.35-11.98-1.04-4.34-.69-8.51-1.96-12.5-3.8-3.99-1.84-7.48-4.26-10.44-7.26-2.97-2.99-4.91-6.8-5.82-11.41h-39.39c1.14,10.37,4.16,19.21,9.08,26.47,4.9,7.26,11.07,13.09,18.49,17.47,7.42,4.38,15.58,7.49,24.49,9.35,8.9,1.84,17.93,2.77,27.06,2.77s17.98-.92,26.55-2.77c8.56-1.84,16.21-4.9,22.95-9.17,6.73-4.27,12.21-9.98,16.44-17.14,4.22-7.14,6.33-15.92,6.33-26.29,0-9.68-1.54-17.53-4.63-23.53-3.08-5.99-7.36-10.9-12.84-14.7v-.03Zm212.71-4.31c0-12.69-1.71-24.45-5.14-35.3-3.43-10.83-8.62-20.3-15.58-28.38-6.97-8.07-15.58-14.47-25.87-19.21-10.27-4.72-22.49-7.09-36.64-7.09s-25.46,2.37-35.96,7.09c-10.51,4.73-19.47,11.25-26.88,19.56-7.42,8.3-13.08,18.16-16.96,29.58-3.88,11.42-5.82,24.05-5.82,37.9s1.77,27.16,5.31,38.59c3.54,11.41,8.96,21.28,16.27,29.59,7.31,8.3,16.37,14.65,27.23,19.03,10.84,4.38,23.47,6.57,37.85,6.57,9.36,0,18.21-.99,26.55-2.94,8.34-1.96,15.97-5.07,22.95-9.35,6.96-4.26,13.01-9.74,18.15-16.43,5.14-6.68,8.85-14.65,11.13-23.87h-40.09c-3.2,7.39-8.22,12.58-15.06,15.57-6.85,3-14.39,4.5-22.61,4.5-7.76,0-14.55-1.27-20.38-3.8-5.82-2.54-10.74-5.94-14.73-10.21-4-4.26-7.14-9.28-9.42-15.05-2.28-5.76-3.66-12-4.11-18.69h128.8c.68-5.76,1.03-11.65,1.03-17.65h0Zm-129.48-12.12c.68-5.99,2.17-11.65,4.46-16.96,2.28-5.3,5.32-9.91,9.08-13.84,3.78-3.92,8.39-7.03,13.88-9.35,5.48-2.3,11.88-3.46,19.19-3.46,13.01,0,23.63,3.8,31.85,11.42,8.22,7.61,12.56,18.34,13.03,32.19h-91.48ZM498.21,51.5c-13.3,0-24.06,10.89-24.06,24.3s10.76,24.3,24.06,24.3,24.06-10.89,24.06-24.3-10.76-24.3-24.06-24.3Z" fill="#ffffff"/>
</svg>